<?xml version="1.0" encoding="utf-8"?>
<!-- Generator: Adobe Illustrator 24.0.2, SVG Export Plug-In . SVG Version: 6.00 Build 0)  -->
<svg version="1.1" id="Layer_1" xmlns="http://www.w3.org/2000/svg" xmlns:xlink="http://www.w3.org/1999/xlink" x="0px" y="0px"
	 viewBox="0 0 500 500" style="enable-background:new 0 0 500 500;" xml:space="preserve">
<style type="text/css">
	.st0{fill:#FFA600;}
</style>
<rect width="500" height="500"/>
<g transform="rotate(0 624.0617 404.385)">
	<g transform="matrix(1 0 0 1 0 0)">
		<path id="id-D6z1nYkh2" class="st0" d="M122.9,335.7L122.9,335.7V41h31.4v291.9c0,38.8-5.4,69-16.2,90.5
			c-10.8,21.6-27.3,37.3-49.4,47.1l0,0l-1.4-2.3c12.3-8.6,21.3-23.2,27-43.7C120,404.2,122.9,374.5,122.9,335.7z M376.9,364.4h-33.3
			V227.6L229.1,41h35.1l103,169.1h2.8L452.2,41h35.1L376.9,221.2V364.4z"/>
	</g>
</g>
<g transform="rotate(0 607.0617 404.385)">
	<g>
		<rect id="id-tBXipXk0b1707268413878" x="26.4" y="41" class="st0" width="10.7" height="429.6"/>
	</g>
</g>
</svg>
